<?xml version='1.0' encoding='utf-8'?>
<svg xmlns:xlink="http://www.w3.org/1999/xlink" xmlns="http://www.w3.org/2000/svg" viewBox="0 0 708.66 708.66"> <defs> <linearGradient id="d"> <stop stop-color="#d10000" offset="0"/> <stop stop-color="#f6ff00" offset="1"/> </linearGradient> <linearGradient id="b"> <stop stop-color="#483100" offset="0"/> <stop stop-color="#929d13" offset="1"/> </linearGradient> <linearGradient id="e"> <stop stop-color="#d3d795" offset="0"/> <stop stop-color="#c2c94b" offset="1"/> </linearGradient> <linearGradient id="a"> <stop stop-color="#5e5e5e" offset="0"/> <stop stop-color="#414141" offset=".5"/> <stop stop-color="#bfbfbf" offset="1"/> </linearGradient> <linearGradient id="y" x1="85.454" x2="613.03" gradientUnits="userSpaceOnUse"> <stop stop-color="#404040" offset="0"/> <stop stop-color="#aaa" offset="1"/> </linearGradient> <linearGradient id="x" x1="131.61" x2="510.41" gradientUnits="userSpaceOnUse"> <stop stop-color="#5a5a5a" offset="0"/> <stop stop-color="#3f3f3f" offset="1"/> </linearGradient> <linearGradient id="c" x1="284.81" x2="223.81" y1="187.38" y2="269.06" gradientTransform="matrix(1.7077 0 0 1.124 -164.46 -160.45)" gradientUnits="userSpaceOnUse"> <stop stop-color="#0500a6" offset="0"/> <stop stop-color="#030055" offset="1"/> </linearGradient> <linearGradient id="w" x1="1584.7" x2="1348.1" y1="149.4" y2="140.49" gradientTransform="matrix(.54339 0 0 3.5324 -162.12 -161.62)" gradientUnits="userSpaceOnUse" xlink:href="#a"/> <linearGradient id="v" x1="1254.6" x2="893.71" y1="172.15" y2="165.39" gradientTransform="matrix(.61847 0 0 3.0695 -165.63 -163.64)" gradientUnits="userSpaceOnUse" xlink:href="#a"/> <linearGradient id="u" x1="941.45" x2="739.1" y1="188.39" y2="175.25" gradientTransform="matrix(.65535 0 0 2.9075 -166.8 -161.36)" gradientUnits="userSpaceOnUse" xlink:href="#a"/> <linearGradient id="t" x1="921.97" x2="555.71" y1="178.91" y2="169.89" gradientTransform="matrix(.61847 0 0 3.0865 -169.13 -162.07)" gradientUnits="userSpaceOnUse" xlink:href="#a"/> <linearGradient id="s" x1="1005" x2="406.39" y1="191.74" y2="189.67" gradientTransform="matrix(.56755 0 0 3.382 -167.96 -161.62)" gradientUnits="userSpaceOnUse" xlink:href="#a"/> <linearGradient id="r" x1="769.52" x2="337.71" y1="169.04" y2="170.03" gradientTransform="matrix(.54339 0 0 3.5324 -164.46 -160.45)" gradientUnits="userSpaceOnUse" xlink:href="#a"/> <linearGradient id="q" x1="1407.3" x2="1143.7" y1="174.16" y2="170.03" gradientTransform="matrix(.56755 0 0 3.382 -163.29 -165.13)" gradientUnits="userSpaceOnUse" xlink:href="#a"/> <linearGradient id="p" x1="950.97" x2="906.22" y1="30.577" y2="30.277" gradientTransform="scale(.67773 1.4755)" gradientUnits="userSpaceOnUse" xlink:href="#e"/> <linearGradient id="o" x1="316.79" x2="327.98" y1="19.141" y2="29.718" gradientTransform="matrix(2.431 7.5379e-17 -4.7332e-17 .80621 -155.93 -5.8657)" gradientUnits="userSpaceOnUse" xlink:href="#d"/> <linearGradient id="n" x1="430.74" x2="449.6" y1="102.15" y2="113.16" gradientTransform="scale(1.4471 .69105)" gradientUnits="userSpaceOnUse" xlink:href="#d"/> <linearGradient id="m" x1="714.63" x2="710.52" y1="34.296" y2="26.153" gradientTransform="scale(.62787 1.5927)" gradientUnits="userSpaceOnUse" xlink:href="#b"/> <radialGradient id="l" cx="201.94" cy="1065" r="194.7" gradientTransform="scale(1.7484 .57196)" gradientUnits="userSpaceOnUse"> <stop stop-opacity=".83922" offset="0"/> <stop stop-opacity="0" offset="1"/> </radialGradient> <radialGradient id="j" cx="562.83" cy="144.26" r="57.264" gradientTransform="scale(.8034 1.2447)" gradientUnits="userSpaceOnUse"> <stop stop-color="#ebf907" offset="0"/> <stop stop-color="#c2c94b" offset="1"/> </radialGradient> <radialGradient id="k" cx="461.42" cy="188.57" r="169.28" gradientTransform="scale(.8034 1.2447)" gradientUnits="userSpaceOnUse" xlink:href="#e"/> <radialGradient id="i" cx="471.37" cy="151.22" r="22.657" gradientTransform="scale(.71193 1.4046)" gradientUnits="userSpaceOnUse" xlink:href="#b"/> <radialGradient id="h" cx="463.85" cy="211.09" r="27.403" gradientTransform="scale(.71193 1.4046)" gradientUnits="userSpaceOnUse" xlink:href="#b"/> <radialGradient id="g" cx="463.85" cy="211.09" r="27.403" gradientTransform="matrix(.71193 0 0 1.4046 101.32 -101.17)" gradientUnits="userSpaceOnUse" xlink:href="#b"/> <radialGradient id="f" cx="463.85" cy="211.09" r="27.403" gradientTransform="matrix(.71193 0 0 1.4046 80.285 -148.13)" gradientUnits="userSpaceOnUse" xlink:href="#b"/> </defs> <path transform="matrix(1.0136 0 0 1.1159 -6.0781 -88.544)" d="m693.48 609.11a340.41 111.36 0 1 1-680.82 0 340.41 111.36 0 1 1 680.82 0z" fill="url(#l)"/> <path d="m86.84 89.676-1.1688 500.26c31.558 94.285 465.19 99.74 529.48 5.8441l-2.3376-501.43-525.97-4.6753z" fill="url(#y)" fill-rule="evenodd" stroke="#000" stroke-linecap="round" stroke-linejoin="round" stroke-width="5.1954"/> <path transform="matrix(1.3854 0 0 1.3854 -94.328 -75.128)" d="m510.4 118.95a189.4 55.681 0 1 1-378.8 0 189.4 55.681 0 1 1 378.8 0z" fill="url(#x)" stroke="#000" stroke-linecap="round" stroke-linejoin="round" stroke-width="3.75"/> <path d="m452.03 64.76c4.0874-5.654 6.4597-18.429 6.1475-26.842 1.8535-0.12891 3.4833 0.41329 4.2182 0.84364 0.47203 7.5353-3.9402 22.266-10.366 25.999z" fill="url(#m)" fill-rule="evenodd" stroke="#000" stroke-width=".3125"/> <g transform="matrix(.99104 .62666 -.63659 .97558 -158.91 -343.17)" fill-rule="evenodd" stroke="#000"> <path d="m612.95 12.491c14.516 16.504 11.434 41.361-2.0879 56.672l26.546 1.4914c-10.34-11.136-14.417-36.588-0.59655-56.672-3.7781-0.19885-19.686-1.1931-23.862-1.4914z" fill="url(#p)" stroke-width=".3125"/> <path d="m607.99 14.457c1.4511-4.7364 6.0681-9.4728 18.468-4.9567 10.245-3.0842 17.061 5.2321 18.996 10.244-3.4298-2.6986-8.0468-4.5712-13.06-1.6522-3.2979-2.5885-11.608-4.5161-17.808-0.33045-0.35177-3.4146-4.1333-4.3509-6.5957-3.3045z" fill="url(#o)" stroke-width=".43748"/> <path d="m623.98 63.695c4.7104 4.2885 8.788 10.264 18.033 4.5346-2.7067 5.3782-13.533 13.498-19.193 9.491-6.9601 2.2849-13.604-9.034-14.975-15.08 5.8001 1.6521 12.022 3.7261 16.135 1.0546z" fill="url(#n)" stroke-width=".3125"/> </g> <path d="m573.77 138.77h12.621a19.404 19.404 0 0 1 19.404 19.404v422.88a19.404 19.404 0 0 1-19.404 19.404h-12.621a19.404 19.404 0 0 1-19.404-19.404v-422.88a19.404 19.404 0 0 1 19.404-19.404" fill="url(#w)"/> <path d="m508.32 168.57h17.296a19.404 19.404 0 0 1 19.404 19.404v422.88a19.404 19.404 0 0 1-19.404 19.404h-17.296a19.404 19.404 0 0 1-19.404-19.404v-422.88a19.404 19.404 0 0 1 19.404-19.404" fill="url(#q)"/> <path d="m426.5 181.43h27.815a19.404 19.404 0 0 1 19.404 19.404v417.82a19.404 19.404 0 0 1-19.404 19.404h-27.815a19.404 19.404 0 0 1-19.404-19.404v-417.82a19.404 19.404 0 0 1 19.404-19.404" fill="url(#v)"/> <path d="m333.58 191.95h35.997a19.404 19.404 0 0 1 19.404 19.404v419.5a19.404 19.404 0 0 1-19.404 19.404h-35.997a19.404 19.404 0 0 1-19.404-19.404v-419.5a19.404 19.404 0 0 1 19.404-19.404" fill="url(#u)"/> <path d="m250.59 181.43h27.815a19.404 19.404 0 0 1 19.404 19.404v420.35a19.404 19.404 0 0 1-19.404 19.404h-27.815a19.404 19.404 0 0 1-19.404-19.404v-420.35a19.404 19.404 0 0 1 19.404-19.404" fill="url(#t)"/> <path d="m178.71 168.57h17.296a19.404 19.404 0 0 1 19.404 19.404v422.88a19.404 19.404 0 0 1-19.404 19.404h-17.296a19.404 19.404 0 0 1-19.404-19.404v-422.88a19.404 19.404 0 0 1 19.404-19.404" fill="url(#s)"/> <path d="m115.59 142.86h12.621a19.404 19.404 0 0 1 19.404 19.404v422.88a19.404 19.404 0 0 1-19.404 19.404h-12.621a19.404 19.404 0 0 1-19.404-19.404v-422.88a19.404 19.404 0 0 1 19.404-19.404" fill="url(#r)"/> <path d="m142.94 88.507 17.532 53.766c43.831 13.344 87.077 19.383 130.32 22.5l-27.467-96.136-120.39 19.87z" fill="url(#c)" fill-rule="evenodd" stroke="#000" stroke-linecap="round" stroke-linejoin="round" stroke-width="3.4636"/> <path d="m143.24 87.923 33.019-37.695 119.22-20.747-31.85 39.156-120.39 19.286z" fill="url(#c)" fill-rule="evenodd" stroke="#000" stroke-linecap="round" stroke-linejoin="round" stroke-width="3.4636"/> <path d="m295.77 29.774 43.539 136.46c-14.805 1.461-32.24 0.58442-48.798-2.3376l-27.175-94.967 32.435-39.156z" fill="url(#c)" fill-rule="evenodd" stroke="#000" stroke-linecap="round" stroke-linejoin="round" stroke-width="3.4636"/> <g transform="matrix(.73517 -.11481 .11481 .73517 -18.465 -14.854)"> <path d="m236.73 179.91h80.183a15.273 19.931 0 0 1 15.273 19.931 15.273 19.931 0 0 1-15.273 19.931h-80.183a15.273 19.931 0 0 1-15.273-19.931 15.273 19.931 0 0 1 15.273-19.931" fill="#fff"/> <path d="m238.27 182.97h76.394a13.757 17.084 0 0 1 13.757 17.084 13.757 17.084 0 0 1-13.757 17.084h-76.394a13.757 17.084 0 0 1-13.757-17.084 13.757 17.084 0 0 1 13.757-17.084" fill="#00074a"/> <path d="m239.07 186.13h75.049a10.973 14.131 0 0 1 10.973 14.131 10.973 14.131 0 0 1-10.973 14.131h-75.049a10.973 14.131 0 0 1-10.973-14.131 10.973 14.131 0 0 1 10.973-14.131" fill="#fff"/> <path d="m241.9 190.97 0.07908 18.929 15.265-0.07909-0.15819-8.5419-2.61-1.9773 1.8982-1.4764 0.05273-5.1146-1.3446-1.6873-13.182-0.05273zm4.0073 7.171 5.2991-0.0791 1.5818-1.3446-0.03954-2.0168-1.1468-1.3841h-5.7473l0.05273 4.8246zm0 3.2428 0.02636 6.301 7.3292-0.15819-0.13182-5.6155-1.0282-0.60637-6.1955 0.07909z" fill="#00074a" fill-rule="evenodd" stroke="#00074a" stroke-linecap="round" stroke-linejoin="round" stroke-opacity=".78451" stroke-width="1.25"/> <path d="m260.4 190.97 0.07908 18.929 3.948-0.01977-0.00659-8.4562 6.179-0.08897 1.1913 0.77279 0.13677 7.7328 3.8162-0.01977-0.15819-8.5419-2.61-1.9773 1.8982-1.4764 0.05273-5.1146-1.3446-1.6873-13.182-0.05273zm4.0073 7.171 5.2991-0.0791 1.5818-1.3446-0.03954-2.0168-1.1468-1.3841h-5.7473l0.05273 4.8246z" fill="#00074a" fill-rule="evenodd" stroke="#00074a" stroke-linecap="round" stroke-linejoin="round" stroke-opacity=".78451" stroke-width="1.25"/> <path d="m278.75 190.97 0.07908 18.929 3.948-0.01977-0.0725-18.91h-3.9546z" fill="#00074a" fill-rule="evenodd" stroke="#00074a" stroke-linecap="round" stroke-linejoin="round" stroke-opacity=".78451" stroke-width="1.25"/> <path d="m286.25 190.97 0.07908 18.929 12.859 0.03296-0.03626-3.4702-8.9818 0.04449 0.03461-15.537h-3.9546z" fill="#00074a" fill-rule="evenodd" stroke="#00074a" stroke-linecap="round" stroke-linejoin="round" stroke-opacity=".78451" stroke-width="1.25"/> <path d="m301.83 190.97 0.07908 18.929 12.859 0.03296-0.03626-3.4702-8.9818 0.04449 0.03461-15.537h-3.9546z" fill="#00074a" fill-rule="evenodd" stroke="#00074a" stroke-linecap="round" stroke-linejoin="round" stroke-opacity=".78451" stroke-width="1.25"/> </g> <g transform="matrix(.24625 -.31818 .16902 .46357 184.45 65.378)"> <path d="m276.82 179.91a55.364 19.931 0 0 1 55.364 19.931 55.364 19.931 0 0 1-55.364 19.931 55.364 19.931 0 0 1-55.364-19.931 55.364 19.931 0 0 1 55.364-19.931" fill="#fff"/> <path d="m274.65 182.97h3.6333a50.138 17.084 0 0 1 50.138 17.084 50.138 17.084 0 0 1-50.138 17.084h-3.6333a50.138 17.084 0 0 1-50.138-17.084 50.138 17.084 0 0 1 50.138-17.084" fill="#00074a"/> <path d="m270.47 186.13h12.256a42.37 14.131 0 0 1 42.37 14.131 42.37 14.131 0 0 1-42.37 14.131h-12.256a42.37 14.131 0 0 1-42.37-14.131 42.37 14.131 0 0 1 42.37-14.131" fill="#fff"/> <path d="m241.9 190.97 0.07908 18.929 15.265-0.07909-0.15819-8.5419-2.61-1.9773 1.8982-1.4764 0.05273-5.1146-1.3446-1.6873-13.182-0.05273zm4.0073 7.171 5.2991-0.0791 1.5818-1.3446-0.03954-2.0168-1.1468-1.3841h-5.7473l0.05273 4.8246zm0 3.2428 0.02636 6.301 7.3292-0.15819-0.13182-5.6155-1.0282-0.60637-6.1955 0.07909z" fill="#00074a" fill-rule="evenodd" stroke="#00074a" stroke-linecap="round" stroke-linejoin="round" stroke-opacity=".78451" stroke-width="1.25"/> <path d="m260.4 190.97 0.07908 18.929 3.948-0.01977-0.00659-8.4562 6.179-0.08897 1.1913 0.77279 0.13677 7.7328 3.8162-0.01977-0.15819-8.5419-2.61-1.9773 1.8982-1.4764 0.05273-5.1146-1.3446-1.6873-13.182-0.05273zm4.0073 7.171 5.2991-0.0791 1.5818-1.3446-0.03954-2.0168-1.1468-1.3841h-5.7473l0.05273 4.8246z" fill="#00074a" fill-rule="evenodd" stroke="#00074a" stroke-linecap="round" stroke-linejoin="round" stroke-opacity=".78451" stroke-width="1.25"/> <path d="m278.75 190.97 0.07908 18.929 3.948-0.01977-0.0725-18.91h-3.9546z" fill="#00074a" fill-rule="evenodd" stroke="#00074a" stroke-linecap="round" stroke-linejoin="round" stroke-opacity=".78451" stroke-width="1.25"/> <path d="m286.25 190.97 0.07908 18.929 12.859 0.03296-0.03626-3.4702-8.9818 0.04449 0.03461-15.537h-3.9546z" fill="#00074a" fill-rule="evenodd" stroke="#00074a" stroke-linecap="round" stroke-linejoin="round" stroke-opacity=".78451" stroke-width="1.25"/> <path d="m301.83 190.97 0.07908 18.929 12.859 0.03296-0.03626-3.4702-8.9818 0.04449 0.03461-15.537h-3.9546z" fill="#00074a" fill-rule="evenodd" stroke="#00074a" stroke-linecap="round" stroke-linejoin="round" stroke-opacity=".78451" stroke-width="1.25"/> </g> <path d="m165.79 132.74 2.4021 9.9456 8.5212 2.5703 8.4992 2.1309 5.6944-4.1347 0.79666 5.5934 9.5824 2.0306-3.5415-23.168-6.8697 1.0472-7.3965 11.326-10.532-8.4953-7.1559 1.154z" fill="#fff" fill-rule="evenodd"/> <path d="m201.87 126.8 3.983 25.066 9.1997 1.8202-4.411-28.179-8.7717 1.2933z" fill="#fff" fill-rule="evenodd"/> <path d="m214.96 124.69 5.6441 30.024 8.3791 1.4285-5.1522-32.883-8.871 1.4306z" fill="#fff" fill-rule="evenodd"/> <path d="m242.05 120.56 6.0912 38.436 8.8431 0.88794-1.7754-13.413 12.278 13.675 9.9546-1.484-15.841-17.712 8.0091-24.835-8.7527 1.4115-6.8034 20.271-3.0329-18.806-8.9701 1.568z" fill="#fff" fill-rule="evenodd"/> <path d="m277.56 100.17 5.3686 22.277 2.4652-2.6651-3.6174-14.732 2.654 1.1089 1.1088-5.2549 3.6644 14.759 2.3862-2.6577-5.3706-22.119-1.8644 1.9766-1.1805 7.7895-3.6773-2.5767-1.9369 2.094z" fill="#fff" fill-rule="evenodd"/> <path d="m287.31 89.548 5.4306 22.366 2.4011-2.5959-5.4476-22.27-2.3841 2.4994z" fill="#fff" fill-rule="evenodd"/> <path d="m290.85 85.716 5.4156 22.304 6.211-6.7146-1.0371-4.1049-3.7628 4.1459-4.4255-18.226-2.4012 2.5958z" fill="#fff" fill-rule="evenodd"/> <path d="m298.21 77.925 5.3686 22.277 2.4331-2.6305-1.9672-7.9356 4.5925 5.0974 2.7043-2.8456-5.9309-6.6146 0.25921-15.413-2.3691 2.5612-0.28702 12.635-2.3852-9.8237-2.4182 2.6922z" fill="#fff" fill-rule="evenodd"/> <path d="m235.72 157.14 7.7069-1.388 0.21916 2.5568-7.9261-1.1688z" fill="#fff" fill-rule="evenodd"/> <path d="m332.31 150.19c-32.059 22.159-16.127 162.06-5.4014 161.54 52.143-2.5387 21.372-127.11 83.099-150.17 12.373-13.639-57.598-25.259-77.698-11.367z" fill="url(#k)" fill-rule="evenodd" stroke="#000" stroke-linecap="round" stroke-linejoin="round" stroke-width="2.5"/> <path d="m385.2 145.93c52.728 29.541-7.1766 123.04 58.294 128.42 11.608 0.95382 19.669-107.52 5.2728-133.08-12.486-22.168-76.58-14.714-63.567 4.6626z" fill="url(#j)" fill-rule="evenodd" stroke="#000" stroke-linecap="round" stroke-linejoin="round" stroke-width="2.5"/> <path d="m343.36 196.57c-5.6181-5.9785-16.615-5.4395-16.24 13.709 0.10506 5.4905 20.682 35.478 20.458 24.044-0.14258-7.1621-13.022-16.054-5.4837-20.037 11.773-6.2203 6.7003-11.933 1.2655-17.717z" fill="url(#i)" fill-rule="evenodd"/> <path d="m318.38 270.89c-3.3275 7.4989 4.3101 31.441 7.8037 39.019 1.5495 3.3611 22.791-3.7519 22.568-15.186-0.14258-7.1621-16.033 2.1963-17.927-6.1164-1.5139-6.6422-6.5871-30.915-12.444-17.717z" fill="url(#h)" fill-rule="evenodd"/> <g transform="translate(7.5928 -21.935)" fill-rule="evenodd" stroke="#000"> <path d="m330.71 83.099 53.15-29.738 46.4 32.902-3.1637 28.895-54.002 25.972-39.853-39.049-2.5309-18.982z" fill="#fff" stroke-width=".3125"/> <path d="m382.08 66.983-27.81 38.732 23.865 9.5399-10.256-16.981 7.4949-12.974 6.1143 35.488-26.232 2.0988 32.149-27.666 13.215 15.645-1.9724 18.317-10.256-26.521s17.948-21.56 17.948-25.185-15.582-16.599-15.582-16.599-43.194 6.2963-27.021 14.31 46.153 29.001 46.153 29.001l-0.19723 12.593-29.388 7.8227-27.218 1.7172-10.453-26.33 45.759-12.402 32.741-9.5399 1.9723 16.027-10.651 26.903s-30.769-20.606-31.163-21.56-32.938-14.119-32.938-14.119l-8.1489 10.924 6.1766 19.032 15.384-38.541-6.3115-20.415 44.181 5.724 16.962 20.797 12.623 32.054-24.654-16.981 8.8756-13.928 7.8894 31.482-6.706 9.1583h-34.713l-15.779 4.9608 19.724 2.4804 18.935-3.4344s-8.4811-15.836-11.045-17.553-41.222 6.1056-41.222 6.1056-6.5088-16.981-6.5088-18.507-9.4673-23.85-7.8894-24.613 20.907-6.2963 20.907-6.2963l8.2839 17.744-0.98618 23.277s-32.544-9.7307-32.149-11.066 32.741-25.185 32.741-25.185l17.159-5.5332z" fill="#f8f8f8" stroke-width=".28743"/> </g> <path d="m415.06 187.01c1.0865 8.1318 9.7938 8.6622 13.287 16.24 1.5495 3.3611-0.6304 20.734 8.2256 13.498 6.1848-5.053 9.6984-43.782-2.7418-39.862-6.4975 2.0475-20.929-6.0276-18.771 10.124z" fill="url(#g)" fill-rule="evenodd"/> <path d="m387.7 141.74c-3.5142 7.4133 25.49 5.9193 32.269 1.0546 15.891-11.403 12.868 12.719 21.724 5.4837 6.1848-5.053-21.095-21.848-33.535-17.927-6.4975 2.0475-14.602-0.96568-20.458 11.389z" fill="url(#f)" fill-rule="evenodd"/> </svg>